<svg xmlns="http://www.w3.org/2000/svg" xmlns:xlink="http://www.w3.org/1999/xlink" preserveAspectRatio="xMidYMid meet" version="1.0" viewBox="34.7 26.3 1058.5 1110.0" zoomAndPan="magnify" style="fill: rgb(255, 255, 255);" role="img" aria-label="Bay Laurel Leaves Silhouette"><g data-name="Bay Laurel 5" id="__id10_s3426qxmcw"><path d="M355.21,942l-6.63,8c.35,4.27,5.1,5.85,5.39,9.92.23,3.22.57,6.44.87,9.81,3.85-.89,4.21-4.47,6.22-6.53A19.79,19.79,0,0,1,384,959.54c6.84,3.51,10.11,10.91,8.49,19.23-1.74,8.91-8.45,15.16-16.84,15.8-3.83.29-7.48-.64-11.82-1.51-4.33,5.28-9,10.52-17.14,10.7-7.72.18-12.78-3.66-17-9.76-6.32.61-12.47,2.86-18.68-.94-5.77-3.53-6.74-9.67-9.64-15.08-14.24-.41-27.62,1-40.72,7.47a769.15,769.15,0,0,0-78.86,44.42c-16.16,10.45-31.87,21.61-47.68,32.59-23.27,16.16-46.44,32.45-68.79,49.86-6.55,5.11-13.21,10.06-19.08,16-2.88,2.92-6.27,5.36-9.41,8-2.14-2-.26-3,.51-3.88,2.71-3.14,5.51-6.23,8.46-9.14,19.73-19.41,36.56-41.23,52.91-63.46,7.84-10.67,11.56-22.84,12.83-35.77.92-9.34,1.35-18.78-.19-27.39-2.26-2.69-4.74-2-6.81-2.61a23.69,23.69,0,0,1-4.2-1.62c-8.9-4.67-12.88-13-9.8-20.29,3.72-8.85,15.84-14.44,24.6-11.35,6.1,2.14,10.14,10.56,8.19,18a23.34,23.34,0,0,1-4.27,9.13c-3.29,3.86-3.55,7.94-3.43,12.6.27,9.77.08,19.56.08,29.32,2.72.59,3.44-1.47,4.27-3,6.07-10.88,12.35-21.65,17.95-32.77,6.64-13.13,12.6-26.61,19-39.87,2.17-4.51,3.88-9,2.85-14.12a19,19,0,0,1-.11-4.52c1.19-24.73-5-48.07-14.79-70.32-9.05-20.54-12.62-41.74-12.41-63.91.1-10.19-.12-20.39-.33-30.58-.23-11.51-2.69-22.59-8.36-32.6-7.53-13.28-10-27.5-9.77-42.49.11-6.79-.07-13.56-2-20.21A67.85,67.85,0,0,0,108,665c-4.64-9.49-9.28-19-13.31-28.76-7.13-17.27-8.16-35.13-3.91-53.31.34-1.47.55-3,1-4.42,4.74-16.37,4.59-32.76.65-49.26q-4.22-17.61-6.75-35.58a208.23,208.23,0,0,0-4.51-21c-1-4-2.15-8-4.72-11.44-3.5-4.69-4.76-10.25-5.56-15.87-1.55-10.84-3-21.7-4.29-32.57a122.71,122.71,0,0,1,.68-30.51c4-30.69,8.7-61.32,11.72-92.11a141.43,141.43,0,0,1,16.19-53.76c2.13-4,4.11-8.08,6.21-12.09a215.79,215.79,0,0,0,13.29-32.44,69.23,69.23,0,0,0,3.89-21.06c.09-6,1.06-12.05,1.11-18.08.08-9.28,2.69-17.84,6.37-26.21a158.2,158.2,0,0,1,19.55-33.07,70.71,70.71,0,0,1,8.47-9.09c11.19-10.15,22.51-20.16,33.79-30.21,10.48-9.35,22.3-16.82,34.21-24.12,2.88-1.77,5.85-3.46,9.41-3.61,2.84-.12,5.37,1.35,5.92,4.14a51.19,51.19,0,0,1,1,9c.23,18.6,3.59,36.79,7.12,55a143.87,143.87,0,0,0,7.18,23.82c5.79,15.16,11.74,30.25,18.37,45.08,7.24,16.19,13.8,32.68,20.72,49,3.39,8,6.91,15.93,10.45,23.86,1.69,3.79,3.67,7.49,4.11,11.69.73,7,3.81,13,7.79,18.59,4.58,6.47,9,13.08,13.79,19.38a163.52,163.52,0,0,1,23.49,42.43,409.43,409.43,0,0,1,22,86.51q4.13,29.71,8.16,59.45c2.09,15.41,2.13,30.91,1.39,46.38-.33,6.73-1.82,13.45-3.15,20.1a212.9,212.9,0,0,0-4,29.13c-.94,15.49-2.8,30.8-10.22,44.92-3.79,7.22-2.72,15.21,1,21.82,7.06,12.52,6.44,25.2,3.5,38.42-4.69,21-10.71,41.67-17.14,62.19a112,112,0,0,1-19.78,36.69c-5.91,7.37-11.82,14.73-17.61,22.19A80.48,80.48,0,0,1,294,815.87a40.49,40.49,0,0,0-11.58,10.63c-13.11,17.66-28.63,33.12-44.61,48.13A146,146,0,0,1,226.44,884a300.63,300.63,0,0,0-58.09,58.51,72,72,0,0,0-8.08,13.57c-5.16,11.34-10.58,22.55-15.86,33.84-.92,2-2.55,3.9-.4,6.66,9.83-7.51,19.49-15.27,29.55-22.48s20.59-14,31.19-21.1c-.24-2.14-.5-4.35-.75-6.56-.8-7.08,4.83-13.79,11.53-16.5,6.94-2.8,16.62-.79,20.87,4.47s4.43,11,2.1,17.08-6.88,9.84-13.38,10.76a15.75,15.75,0,0,1-10-1.32c-2.32-1.24-4.64-2.46-6.66-3.53-2.8-.19-4.72,1.06-6.62,2.27-23.32,14.78-45.85,30.61-65.53,50.16a35.62,35.62,0,0,0-6.44,7.83,519.09,519.09,0,0,1-51.69,75.67,25,25,0,0,0-1.78,2.91c2.08,2.12,3.43,0,4.64-.81q37.5-26.43,74.89-53a680,680,0,0,1,59.46-37.3Q235.17,994,255,983a25.78,25.78,0,0,0,8.36-7.43,85.08,85.08,0,0,0,9-15.68c5.49-12,9.34-24.64,13.14-37.38-1.84-3-4.11-5.72-5.23-8.83C276.37,903,279,896.55,290.7,893c5.92-1.79,12-1.16,16.9,3.64,1.28,1.26,2.76,2.33,4.6,3.87a167.14,167.14,0,0,0,15.56-24.73c-.69-3.78-3.68-5.37-5-8.07-4.57-9.16-1-20.07,7.93-24,6.38-2.8,16.48-1,21.14,4,5.33,5.65,5.32,12.3,2.83,19a17.32,17.32,0,0,1-16.52,11.6c-1.84,0-3.68-.61-6.25-1.07-3.73,5.72-7.75,11.59-11.46,17.65-3.5,5.71-8.43,10.88-7.65,18.88l13.73,10.31c1.56-3.8-1.15-5.54-2-7.83-3.13-8.88.91-16.8,10-19.36a25.22,25.22,0,0,1,14.53.44c6,1.84,9.52,5.93,10,12.31.15,1.83,0,3.68,0,5.59,2.72,1.15,4.1-1.1,5.52-2.44,19.53-18.36,40.44-35.3,57.43-56.25,2.37-2.93,5.13-5.54,7.68-8.32a53.9,53.9,0,0,1,26.85-16c4-1,8.06-2,12-3.42a30.44,30.44,0,0,0,14.56-10.3,228.73,228.73,0,0,1,22-24.35c13-12.72,24.66-26.58,36.7-40.12,11.1-12.49,23.33-23.61,37.66-32.38,10-6.15,18.5-14.3,26.93-22.44a41.51,41.51,0,0,0,8-10.91c2.72-5.25,7-8.76,12.08-11.53a111.19,111.19,0,0,1,19.69-8.56c15.67-4.9,29.81-12.64,43-22.33,5.47-4,11.17-7.76,17-11.23A56.88,56.88,0,0,1,730.79,627c32.82-2.88,63.72-12.14,91.6-30,19.75-12.66,40.77-14.72,63-9.45,3.67.87,7.28,2,11,2.83a54.55,54.55,0,0,0,24.67-.46,123.87,123.87,0,0,1,60.52,1,71.88,71.88,0,0,1,8.56,2.91c11.81,4.81,24.07,6.08,36.68,5a316.65,316.65,0,0,1,40.75-.89c7.29.29,14.1,2.44,20.79,5.08,3.14,1.24,4.48,3.76,4.63,7.1a18.44,18.44,0,0,1-4.27,12.6c-4.7,5.9-9.47,11.78-14.51,17.39-20.21,22.53-39.35,45.84-54.65,72.09-3.23,5.54-6.85,10.86-10.58,16.08-5.34,7.47-11.6,14-20.7,16.85-3.47,1.1-5.66,3.66-7.77,6.34-4.9,6.23-9.85,12.43-14.62,18.76-18.19,24.15-41.16,41.94-69.69,52.22-10.28,3.7-20.67,7.19-31.2,10.12a31.84,31.84,0,0,0-12.76,6.79c-9.12,7.92-18.42,15.65-27.74,23.34a181,181,0,0,1-32,21.28c-15.43,7.95-31.62,12.18-49.08,10.91-6-.44-12.06-.88-18.09-1.15-11-.49-21.88-.18-32.58,2.85a66.87,66.87,0,0,0-17.56,7.67c-17,10.67-35.08,19.16-53.59,26.8-12.46,5.15-25.31,7.7-38.63,3.51-3.13-1-5.83-.47-8.78.4-11.57,3.42-23.17,6.66-34.31,11.47-13.3,5.75-27.44,8.2-41.86,9-16.67.94-33.2-.73-49.64-3.25-19.77-3-39.51-6.26-59.28-9.29a83.48,83.48,0,0,0-11.29-.83C370.25,941.91,362.71,942,355.21,942Zm-84.66,32.06c11-7.1,23.11-21,27.66-30.19-1.18-2.3-2.3-4.68-6.46-4.52C284.21,950.18,276.56,961.5,270.55,974.06Zm48.08-11c-9.13-1.6-16,1.31-22.92,3.56-3.67,1.19-7.37,2.77-10,7.28,9.66.27,18.18.94,24.72-6.79C312,965.35,314.93,964.83,318.63,963.07Zm-16.17-15.83c-.75.78-1.29,1.28-1.76,1.85-2.56,3.16-5.17,6.28-7.63,9.52-.74,1-2.14,2.24-.18,3.49,12.95-6.64,15.7-8.62,20.4-14.86Zm8.62,9.3c2.21,2.79,4.51,1.43,6.55,1.56,3.89.25,6.19-2.23,8-5.13,1.61-2.55.29-4.14-2.54-5.15A42.7,42.7,0,0,0,311.08,956.54Zm-26.36-15.4c6.53-5,7.52-10.11,5.17-16.18C287.53,929.59,285,934.15,284.72,941.14Z" style="fill: inherit;"></path></g></svg>
